<svg width="24" height="24" viewBox="0 0 24 24" fill="none" xmlns="http://www.w3.org/2000/svg">
<path d="M12 2C10.0222 2 8.08879 2.58649 6.4443 3.6853C4.79981 4.78412 3.51809 6.3459 2.76121 8.17317C2.00433 10.0004 1.8063 12.0111 2.19215 13.9509C2.578 15.8907 3.53041 17.6725 4.92894 19.0711C6.32746 20.4696 8.10929 21.422 10.0491 21.8079C11.9889 22.1937 13.9996 21.9957 15.8268 21.2388C17.6541 20.4819 19.2159 19.2002 20.3147 17.5557C21.4135 15.9112 22 13.9778 22 12C22 10.6868 21.7413 9.38642 21.2388 8.17317C20.7363 6.95991 19.9997 5.85752 19.0711 4.92893C18.1425 4.00035 17.0401 3.26375 15.8268 2.7612C14.6136 2.25866 13.3132 2 12 2ZM12 21.25C10.1705 21.25 8.38213 20.7075 6.86098 19.6911C5.33982 18.6747 4.15423 17.23 3.45412 15.5398C2.75401 13.8496 2.57083 11.9897 2.92774 10.1954C3.28465 8.40109 4.16563 6.7529 5.45927 5.45926C6.7529 4.16563 8.4011 3.28465 10.1954 2.92774C11.9897 2.57082 13.8496 2.754 15.5398 3.45411C17.23 4.15423 18.6747 5.33982 19.6911 6.86098C20.7075 8.38213 21.25 10.1705 21.25 12C21.25 14.4533 20.2755 16.806 18.5407 18.5407C16.806 20.2754 14.4533 21.25 12 21.25Z" fill="#5C4B7D"/>
<path d="M12 20C16.4183 20 20 16.4183 20 12C20 7.58172 16.4183 4 12 4C7.58172 4 4 7.58172 4 12C4 16.4183 7.58172 20 12 20Z" fill="#5C4B7D"/>
<path d="M12 13.353V14H8.27574V13.353H12ZM11.8791 8.57692L8.44948 14H8V13.4065L11.4259 8H11.8791V8.57692ZM11.5694 8V8.65109H8.04911V8H11.5694Z" fill="white"/>
<path d="M15.0949 14.1937H13.6054L13.5974 13.555H14.9495C15.1729 13.555 15.368 13.5165 15.5348 13.4395C15.7016 13.3626 15.8308 13.2528 15.9223 13.1099C16.0165 12.9643 16.0635 12.7912 16.0635 12.5907C16.0635 12.3709 16.0218 12.1923 15.9384 12.0549C15.8577 11.9148 15.7326 11.8132 15.5631 11.75C15.3962 11.6841 15.1836 11.6511 14.9253 11.6511H13.779V17H13V11H14.9253C15.2267 11 15.4958 11.0316 15.7326 11.0948C15.9694 11.1552 16.1698 11.2514 16.334 11.3832C16.5008 11.5124 16.6273 11.6772 16.7134 11.8777C16.7995 12.0783 16.8425 12.3187 16.8425 12.5989C16.8425 12.8461 16.7807 13.07 16.6569 13.2706C16.5331 13.4684 16.3609 13.6305 16.1402 13.7568C15.9223 13.8833 15.6666 13.9643 15.3733 14L15.0949 14.1937ZM15.0585 17H13.2987L13.7387 16.353H15.0585C15.3061 16.353 15.5159 16.3091 15.6881 16.2211C15.863 16.1333 15.9963 16.0096 16.0877 15.8503C16.1792 15.6882 16.225 15.4973 16.225 15.2775C16.225 15.0549 16.186 14.8626 16.108 14.7006C16.0299 14.5384 15.9074 14.4134 15.7406 14.3256C15.5738 14.2376 15.3586 14.1937 15.0949 14.1937H13.9849L13.993 13.555H15.5106L15.6761 13.7857C15.9586 13.8104 16.1981 13.8929 16.3945 14.033C16.591 14.1703 16.7403 14.3462 16.8425 14.5605C16.9475 14.7747 17 15.011 17 15.2692C17 15.6428 16.9192 15.9588 16.7578 16.2171C16.599 16.4725 16.3743 16.6676 16.0838 16.8022C15.7931 16.9341 15.4514 17 15.0585 17Z" fill="white"/>
</svg>
