<svg width="22" height="22" viewBox="0 0 22 22" fill="none" xmlns="http://www.w3.org/2000/svg">
<path d="M11 1C9.02219 1 7.08879 1.58649 5.4443 2.6853C3.79981 3.78412 2.51809 5.3459 1.76121 7.17317C1.00433 9.00043 0.806299 11.0111 1.19215 12.9509C1.578 14.8907 2.53041 16.6725 3.92894 18.0711C5.32746 19.4696 7.10929 20.422 9.0491 20.8079C10.9889 21.1937 12.9996 20.9957 14.8268 20.2388C16.6541 19.4819 18.2159 18.2002 19.3147 16.5557C20.4135 14.9112 21 12.9778 21 11C21 9.68678 20.7413 8.38642 20.2388 7.17317C19.7363 5.95991 18.9997 4.85752 18.0711 3.92893C17.1425 3.00035 16.0401 2.26375 14.8268 1.7612C13.6136 1.25866 12.3132 1 11 1V1ZM11 20.25C9.17053 20.25 7.38213 19.7075 5.86098 18.6911C4.33982 17.6747 3.15423 16.23 2.45412 14.5398C1.75401 12.8496 1.57083 10.9897 1.92774 9.19541C2.28465 7.40109 3.16563 5.7529 4.45927 4.45926C5.7529 3.16563 7.4011 2.28465 9.19542 1.92774C10.9897 1.57082 12.8496 1.754 14.5398 2.45411C16.23 3.15423 17.6747 4.33982 18.6911 5.86098C19.7075 7.38213 20.25 9.17052 20.25 11C20.25 13.4533 19.2755 15.806 17.5407 17.5407C15.806 19.2754 13.4533 20.25 11 20.25V20.25Z" fill="#6666FF" stroke="#6666FF"/>
<path d="M11.1992 11.6758H9.02539L9.01367 10.6035H10.9121C11.2324 10.6035 11.5039 10.5566 11.7266 10.4629C11.9531 10.3652 12.125 10.2266 12.2422 10.0469C12.3594 9.86328 12.418 9.64258 12.418 9.38477C12.418 9.09961 12.3633 8.86719 12.2539 8.6875C12.1445 8.50781 11.9766 8.37695 11.75 8.29492C11.5273 8.21289 11.2422 8.17188 10.8945 8.17188H9.4707V15.5312H8V7H10.8945C11.3633 7 11.7812 7.04492 12.1484 7.13477C12.5195 7.22461 12.834 7.36523 13.0918 7.55664C13.3535 7.74414 13.5508 7.98242 13.6836 8.27148C13.8203 8.56055 13.8887 8.9043 13.8887 9.30273C13.8887 9.6543 13.8047 9.97656 13.6367 10.2695C13.4688 10.5586 13.2207 10.7949 12.8926 10.9785C12.5645 11.1621 12.1562 11.2715 11.668 11.3066L11.1992 11.6758ZM11.1348 15.5312H8.5625L9.22461 14.3652H11.1348C11.4668 14.3652 11.7441 14.3105 11.9668 14.2012C12.1895 14.0879 12.3555 13.9336 12.4648 13.7383C12.5781 13.5391 12.6348 13.3066 12.6348 13.041C12.6348 12.7637 12.5859 12.5234 12.4883 12.3203C12.3906 12.1133 12.2363 11.9551 12.0254 11.8457C11.8145 11.7324 11.5391 11.6758 11.1992 11.6758H9.54688L9.55859 10.6035H11.709L12.043 11.0078C12.5117 11.0234 12.8965 11.127 13.1973 11.3184C13.502 11.5098 13.7285 11.7578 13.877 12.0625C14.0254 12.3672 14.0996 12.6953 14.0996 13.0469C14.0996 13.5898 13.9805 14.0449 13.7422 14.4121C13.5078 14.7793 13.1699 15.0586 12.7285 15.25C12.2871 15.4375 11.7559 15.5312 11.1348 15.5312Z" fill="#6666FF"/>
</svg>
